# xmcd
#
# Track frame offsets:
#	150
#	14859
#	31319
#	48854
#	59932
#	77452
#	92321
#	106725
#	120855
#	134912
#	149119
#	166627
#
# Disc length: 2435 seconds
#
# Revision: 0
# Processed by: cddbd v1.5.2PL0 Copyright (c) Steve Scherf et al.
# Submitted via: EasyCDDAExtractor 11.9.9.666
#
DISCID=9e09810c
DTITLE=Thom Shepherd - The Early Years
DYEAR=1998
DGENRE=Country
TTITLE0=She's Got A Way of Walking Away
TTITLE1=Where Do I Go From Here
TTITLE2=What I'd Really Like To Do
TTITLE3=Mr. Heartbroke's Neighborhood
TTITLE4=Playin' With The Band
TTITLE5=We're Not In Kansas Anymore
TTITLE6=The Royal Oaks
TTITLE7=Dig A New Well
TTITLE8=If I Never Get Over You
TTITLE9=Lightning Strikes Twice
TTITLE10=Lost
TTITLE11=When Hell Freezes Over
EXTD=
EXTT0=
EXTT1=
EXTT2=
EXTT3=
EXTT4=
EXTT5=
EXTT6=
EXTT7=
EXTT8=
EXTT9=
EXTT10=
EXTT11=
PLAYORDER=
